<?xml version="1.0" encoding="UTF-8" standalone="no"?>
<!-- Generator: Adobe Illustrator 16.0.0, SVG Export Plug-In . SVG Version: 6.00 Build 0)  -->

<svg
   version="1.1"
   id="Capa_1"
   x="0px"
   y="0px"
   width="408.483px"
   height="408.483px"
   viewBox="0 0 408.483 408.483"
   style="enable-background:new 0 0 408.483 408.483;"
   xml:space="preserve"
   sodipodi:docname="delete_highlighted.svg"
   inkscape:version="1.2.1 (9c6d41e410, 2022-07-14)"
   xmlns:inkscape="http://www.inkscape.org/namespaces/inkscape"
   xmlns:sodipodi="http://sodipodi.sourceforge.net/DTD/sodipodi-0.dtd"
   xmlns="http://www.w3.org/2000/svg"
   xmlns:svg="http://www.w3.org/2000/svg"><defs
   id="defs118" /><sodipodi:namedview
   id="namedview116"
   pagecolor="#505050"
   bordercolor="#ffffff"
   borderopacity="1"
   inkscape:showpageshadow="0"
   inkscape:pageopacity="0"
   inkscape:pagecheckerboard="1"
   inkscape:deskcolor="#505050"
   showgrid="false"
   inkscape:zoom="0.67684273"
   inkscape:cx="-474.99956"
   inkscape:cy="214.22997"
   inkscape:window-width="1920"
   inkscape:window-height="1011"
   inkscape:window-x="0"
   inkscape:window-y="0"
   inkscape:window-maximized="1"
   inkscape:current-layer="g81" />
<g
   id="g83">
	<g
   id="g81">
		<path
   d="M87.748,388.784c0.461,11.01,9.521,19.699,20.539,19.699h191.911c11.018,0,20.078-8.689,20.539-19.699l13.705-289.316    H74.043L87.748,388.784z M247.655,171.329c0-4.61,3.738-8.349,8.35-8.349h13.355c4.609,0,8.35,3.738,8.35,8.349v165.293    c0,4.611-3.738,8.349-8.35,8.349h-13.355c-4.61,0-8.35-3.736-8.35-8.349V171.329z M189.216,171.329    c0-4.61,3.738-8.349,8.349-8.349h13.355c4.609,0,8.349,3.738,8.349,8.349v165.293c0,4.611-3.737,8.349-8.349,8.349h-13.355    c-4.61,0-8.349-3.736-8.349-8.349V171.329L189.216,171.329z M130.775,171.329c0-4.61,3.738-8.349,8.349-8.349h13.356    c4.61,0,8.349,3.738,8.349,8.349v165.293c0,4.611-3.738,8.349-8.349,8.349h-13.356c-4.61,0-8.349-3.736-8.349-8.349V171.329z"
   id="path77"
   style="fill:#e02424;fill-opacity:1" />
		<path
   d="M343.567,21.043h-88.535V4.305c0-2.377-1.927-4.305-4.305-4.305h-92.971c-2.377,0-4.304,1.928-4.304,4.305v16.737H64.916    c-7.125,0-12.9,5.776-12.9,12.901V74.47h304.451V33.944C356.467,26.819,350.692,21.043,343.567,21.043z"
   id="path79"
   style="fill:#e02424;fill-opacity:1" />
	</g>
</g>
<g
   id="g85">
</g>
<g
   id="g87">
</g>
<g
   id="g89">
</g>
<g
   id="g91">
</g>
<g
   id="g93">
</g>
<g
   id="g95">
</g>
<g
   id="g97">
</g>
<g
   id="g99">
</g>
<g
   id="g101">
</g>
<g
   id="g103">
</g>
<g
   id="g105">
</g>
<g
   id="g107">
</g>
<g
   id="g109">
</g>
<g
   id="g111">
</g>
<g
   id="g113">
</g>
</svg>
