<?xml version="1.0" encoding="UTF-8" standalone="no"?>
<!-- Generator: Adobe Illustrator 19.1.0, SVG Export Plug-In . SVG Version: 6.00 Build 0)  -->

<svg
   version="1.1"
   id="Capa_1"
   x="0px"
   y="0px"
   viewBox="0 0 487.222 487.222"
   style="enable-background:new 0 0 487.222 487.222;"
   xml:space="preserve"
   sodipodi:docname="star_highlighted.svg"
   inkscape:version="1.2.1 (9c6d41e410, 2022-07-14)"
   xmlns:inkscape="http://www.inkscape.org/namespaces/inkscape"
   xmlns:sodipodi="http://sodipodi.sourceforge.net/DTD/sodipodi-0.dtd"
   xmlns="http://www.w3.org/2000/svg"
   xmlns:svg="http://www.w3.org/2000/svg"><defs
   id="defs1128" /><sodipodi:namedview
   id="namedview1126"
   pagecolor="#505050"
   bordercolor="#ffffff"
   borderopacity="1"
   inkscape:showpageshadow="0"
   inkscape:pageopacity="0"
   inkscape:pagecheckerboard="1"
   inkscape:deskcolor="#505050"
   showgrid="false"
   inkscape:zoom="0.80250894"
   inkscape:cx="131.46271"
   inkscape:cy="203.113"
   inkscape:window-width="1920"
   inkscape:window-height="1011"
   inkscape:window-x="0"
   inkscape:window-y="0"
   inkscape:window-maximized="1"
   inkscape:current-layer="g1093" />
<g
   id="g1093">
	<path
   d="M486.554,186.811c-1.6-4.9-5.8-8.4-10.9-9.2l-152-21.6l-68.4-137.5c-2.3-4.6-7-7.5-12.1-7.5l0,0c-5.1,0-9.8,2.9-12.1,7.6   l-67.5,137.9l-152,22.6c-5.1,0.8-9.3,4.3-10.9,9.2s-0.2,10.3,3.5,13.8l110.3,106.9l-25.5,151.4c-0.9,5.1,1.2,10.2,5.4,13.2   c2.3,1.7,5.1,2.6,7.9,2.6c2.2,0,4.3-0.5,6.3-1.6l135.7-71.9l136.1,71.1c2,1,4.1,1.5,6.2,1.5l0,0c7.4,0,13.5-6.1,13.5-13.5   c0-1.1-0.1-2.1-0.4-3.1l-26.3-150.5l109.6-107.5C486.854,197.111,488.154,191.711,486.554,186.811z M349.554,293.911   c-3.2,3.1-4.6,7.6-3.8,12l22.9,131.3l-118.2-61.7c-3.9-2.1-8.6-2-12.6,0l-117.8,62.4l22.1-131.5c0.7-4.4-0.7-8.8-3.9-11.9   l-95.6-92.8l131.9-19.6c4.4-0.7,8.2-3.4,10.1-7.4l58.6-119.7l59.4,119.4c2,4,5.8,6.7,10.2,7.4l132,18.8L349.554,293.911z"
   id="path1091"
   style="fill:#e2c50e;fill-opacity:1" />
<path
   style="fill:#e2c50e;fill-opacity:1;stroke-width:0.623046"
   d="m 120.5594,436.98291 c 0,-0.14976 4.90649,-29.41873 10.90331,-65.04216 5.99682,-35.62343 10.9033,-66.16812 10.9033,-67.87709 0,-1.70897 -0.44147,-4.21058 -0.98106,-5.55913 -0.75331,-1.88271 -12.20468,-13.34598 -49.328216,-49.3795 -47.063095,-45.68123 -48.298797,-46.94021 -46.526198,-47.40234 1.001529,-0.26111 30.418773,-4.69738 65.371654,-9.85837 34.95288,-5.16099 64.63364,-9.66714 65.95723,-10.01367 5.45188,-1.42734 5.01619,-0.65128 36.83024,-65.60257 l 29.57765,-60.385471 29.45527,59.139381 c 16.2004,32.52665 30.07894,60.14237 30.84121,61.36826 0.77263,1.24255 2.7079,2.94839 4.37325,3.85478 2.73007,1.48589 8.67321,2.43561 69.01799,11.02914 36.31688,5.17179 66.26305,9.47247 66.54705,9.55707 0.284,0.0846 -21.21681,21.41653 -47.77958,47.40429 -36.64183,35.84864 -48.53092,47.83774 -49.26971,49.68417 -0.53558,1.33854 -0.97377,3.74047 -0.97377,5.33762 0,1.59716 5.07601,32.02909 11.28004,67.62652 6.20403,35.59741 11.14839,64.85424 10.98746,65.01516 -0.16092,0.16092 -27.00044,-13.64453 -59.64337,-30.67879 -63.94201,-33.36723 -62.40497,-32.67213 -68.09435,-30.79446 -1.20132,0.39647 -28.56889,14.69978 -60.81681,31.78514 -32.24792,17.08537 -58.63259,30.94177 -58.63259,30.79202 z"
   id="path2042" /><path
   style="fill:#e2c50e;fill-opacity:1;stroke-width:0.623046"
   d="m 98.215155,475.18953 c -5.261094,-1.99283 -8.963832,-7.04782 -8.936748,-12.20047 0.0083,-1.57827 5.634728,-36.23369 12.503183,-77.01205 6.86845,-40.77836 12.57152,-74.84595 12.67348,-75.70574 0.1591,-1.34151 -7.72458,-9.23011 -55.577221,-55.61193 C 28.208408,224.93257 2.5981839,199.63375 1.9662385,198.43975 -1.5070542,191.87726 1.3496034,183.58316 8.0995982,180.63198 9.704032,179.93051 37.77913,175.51004 86.914919,168.22242 c 41.977721,-6.22598 76.535931,-11.52311 76.796001,-11.77141 0.26008,-0.2483 15.75513,-31.69626 34.43345,-69.884349 36.96149,-75.568307 35.52504,-72.991969 41.65373,-74.707896 3.59746,-1.007224 7.03177,-0.393133 10.65626,1.905454 l 2.8907,1.833224 34.84701,69.926271 c 19.16586,38.459446 34.91942,70.116336 35.00791,70.348646 0.0885,0.23231 33.94557,5.20844 75.23795,11.05807 41.29237,5.84963 76.33871,10.93349 77.88075,11.29748 4.11862,0.97217 7.19855,3.36733 9.01354,7.00953 1.87105,3.75471 2.00497,7.22336 0.4135,10.71053 -1.10065,2.41174 -20.47848,21.7465 -89.93186,89.73198 -17.99724,17.61686 -22.81273,22.65811 -22.59004,23.64906 1.03998,4.6279 26.46273,151.76236 26.46161,153.14691 -0.003,4.13062 -3.29378,8.87696 -7.73814,11.16205 -1.9124,0.98326 -3.26131,1.19407 -6.23046,0.97373 -3.58831,-0.26629 -7.38065,-2.16055 -71.39011,-35.65903 -37.18028,-19.45779 -68.18521,-35.64639 -68.89987,-35.97468 -1.08584,-0.49881 -12.62744,5.40579 -70.23677,35.93259 -73.62582,39.01383 -71.90098,38.2009 -76.974925,36.27895 z m 82.038025,-68.7591 c 54.881,-29.08287 59.8724,-31.60091 63.33609,-31.95151 3.51957,-0.35625 3.62027,-0.40915 1.57476,-0.82734 -3.02614,-0.61867 -4.98853,0.0661 -14.47241,5.04991 -4.54531,2.38858 -28.73125,15.12883 -53.74655,28.31165 -48.11069,25.35387 -55.76262,29.31126 -55.76262,28.83897 0,-0.1617 4.46035,-27.15051 9.91188,-59.97513 8.946,-53.86538 11.2138,-68.42326 10.36469,-66.53463 -0.30214,0.67203 -21.52266,126.85668 -21.52266,127.9813 0,0.37273 0.16666,0.6777 0.37037,0.6777 0.2037,0 27.17961,-14.20691 59.94645,-31.57092 z m 188.53943,29.85754 c -1.52146,-6.75724 -22.69055,-130.99279 -22.69055,-133.16455 0,-1.61614 0.46502,-3.9184 1.03338,-5.11612 0.62465,-1.31634 20.15435,-20.90134 49.3764,-49.51619 26.58865,-26.03617 48.41356,-47.52961 48.49979,-47.76318 0.17744,-0.48068 -129.99959,-19.06846 -130.44238,-18.62567 -0.39289,0.3929 3.86725,1.03365 69.53862,10.45915 31.69747,4.54938 57.75316,8.36863 57.90155,8.48722 0.61117,0.48845 -4.06023,5.20397 -46.68672,47.12758 -24.50129,24.09728 -45.65462,45.16896 -47.00741,46.82595 -4.26455,5.22353 -4.67016,1.18794 6.88932,68.54519 11.06179,64.45712 12.13054,70.87388 11.85103,71.15339 -0.37347,0.37348 -11.65239,-5.34512 -56.77872,-28.78776 -43.84096,-22.77489 -58.89091,-30.41086 -59.24324,-30.05853 -0.24234,0.24234 116.87967,61.51545 117.59547,61.5208 0.22493,0.002 0.29848,-0.4876 0.16346,-1.08728 z M 142.05401,299.78083 c -0.51618,-2.75924 -6.71375,-9.07871 -54.204522,-55.2706 C 66.946294,224.17874 48.821255,206.31791 47.571623,204.8195 l -2.272058,-2.72439 10.683179,-1.65916 c 5.87575,-0.91253 35.215617,-5.31437 65.199706,-9.78187 29.98409,-4.46749 55.63801,-8.54572 57.00871,-9.06271 1.3707,-0.51699 2.99103,-1.62723 3.60073,-2.4672 1.0522,-1.44961 0.95027,-1.42885 -2.00528,0.40843 -3.07485,1.91143 -3.94278,2.05921 -69.33208,11.80501 -36.420047,5.42814 -66.568726,9.87766 -66.99707,9.8878 -0.428344,0.0101 -0.778808,0.24097 -0.778808,0.51294 0,0.27197 21.81638,21.67693 48.480837,47.56659 30.284861,29.40485 48.875421,47.90362 49.532161,49.28759 0.58086,1.22407 1.10289,3.98563 1.16657,6.17113 l 0.11525,3.95564 0.23529,-3.42675 c 0.12942,-1.88472 0.0597,-4.36499 -0.15475,-5.51172 z m 168.9751,-118.85597 c -1.78332,-0.54812 -3.91645,-1.85349 -5.29589,-3.24085 -1.77593,-1.78611 -9.2198,-16.25285 -32.20547,-62.5895 -16.44261,-33.146557 -30.0475,-60.266461 -30.2331,-60.266461 -0.18558,0 -12.36646,24.60253 -27.06861,54.672291 -33.01206,67.51833 -31.75082,64.89973 -30.53413,63.39493 1.04382,-1.291 21.59635,-42.62387 44.22481,-88.939819 7.15721,-14.64937 13.16753,-26.635217 13.35628,-26.635217 0.18875,0 13.79981,26.926858 30.2468,59.837466 17.23806,34.49355 30.59955,60.50745 31.54674,61.4193 1.72661,1.66219 5.5916,3.30888 7.70256,3.2817 0.68535,-0.009 -0.0976,-0.42906 -1.73999,-0.93384 z"
   id="path2044" /><path
   style="fill:#e2c50e;fill-opacity:1;stroke-width:0.623046"
   d="m 98.215155,475.18953 c -5.259792,-1.99234 -8.962087,-7.04548 -8.938954,-12.20047 0.0071,-1.57827 5.67132,-36.46756 12.587189,-77.53177 6.91588,-41.0642 12.42158,-75.26943 12.23489,-76.01161 -0.18668,-0.74219 -4.48681,-5.43199 -9.55584,-10.42178 C 93.602976,288.2554 15.203407,212.2326 8.2598693,205.66024 2.6105411,200.3129 1.0696347,198.04187 0.55799042,194.30902 -0.23934014,188.49186 3.2944345,182.38772 8.6064935,180.40626 10.041078,179.87114 33.78467,176.08454 61.370033,171.9916 c 27.585362,-4.09295 61.790587,-9.16711 76.011617,-11.2759 14.22102,-2.10879 26.05252,-4.01608 26.29221,-4.23842 0.2397,-0.22234 15.72978,-31.66559 34.42241,-69.873884 37.0129,-75.6555 35.54258,-73.020147 41.70183,-74.744631 1.63867,-0.4588 3.80497,-0.59691 5.32763,-0.339658 3.32554,0.561848 7.96718,3.780269 9.44534,6.549227 0.64026,1.199364 16.32287,32.599939 34.85025,69.779055 18.52738,37.179121 33.88335,67.792621 34.12438,68.030011 0.24102,0.23738 34.08271,5.21491 75.20375,11.06117 41.12104,5.84626 76.02719,10.92691 77.56923,11.29035 4.11772,0.97047 7.19828,3.36578 9.01354,7.00852 1.88013,3.77293 2.00538,7.2457 0.3863,10.71053 -1.24467,2.66362 -12.36343,13.82036 -70.14683,70.38644 -41.17245,40.30508 -42.62892,41.7912 -42.30306,43.16433 0.90093,3.79652 26.41539,151.53208 26.41539,152.95224 0,4.15248 -3.28035,8.89572 -7.73673,11.18699 -1.91047,0.98227 -3.26429,1.19438 -6.23046,0.97617 -3.5565,-0.26164 -6.37673,-1.63253 -45.84523,-22.28487 -23.13058,-12.10334 -53.97136,-28.23894 -68.53506,-35.8569 l -26.47946,-13.85083 -2.18066,0.8952 c -1.19936,0.49236 -32.39045,16.87712 -69.31354,36.4106 -71.65244,37.90639 -70.09561,37.17587 -75.147725,35.26219 z"
   id="path2046"
   sodipodi:nodetypes="sssssssssssssssssssssssssssscsss" /></g>
<g
   id="g1095">
</g>
<g
   id="g1097">
</g>
<g
   id="g1099">
</g>
<g
   id="g1101">
</g>
<g
   id="g1103">
</g>
<g
   id="g1105">
</g>
<g
   id="g1107">
</g>
<g
   id="g1109">
</g>
<g
   id="g1111">
</g>
<g
   id="g1113">
</g>
<g
   id="g1115">
</g>
<g
   id="g1117">
</g>
<g
   id="g1119">
</g>
<g
   id="g1121">
</g>
<g
   id="g1123">
</g>
</svg>
